# xmcd
#
# Track frame offsets: 
#        150
#        14138
#        27263
#        39938
#        52913
#        67838
#        80888
#        95063
#        107288
#        120263
#        135938
#        150713
#        164588
#        176588
#        190013
#        204338
#        217688
#        230888
#        243263
#        258488
#        272963
#        287100
#        299813
#        313313
#        329588
#        339788
#
# Disc length: 4677 seconds
#
# Revision: 2
# Processed by: cddbd v1.5.2PL0 Copyright (c) Steve Scherf et al.
# Submitted via: ExactAudioCopy v1.0b1
#
DISCID=7b12431a
DTITLE=Various Artist - Blues, Boogie, and Bop - The 1940s Mercury Sessions - D
DTITLE=isc 6 of 7
DYEAR=1995
DGENRE=Blues
TTITLE0=Rex Stewart - Boy Meets Horn (mono)
TTITLE1=Rex Stewart - Jug Blues (mono)
TTITLE2=Rex Stewart - B.O. Blues (mono)
TTITLE3=Rex Stewart - That's Rhythm (mono)
TTITLE4=Buddy Rich - Dateless Brown (mono)
TTITLE5=Buddy Rich - You Got Me Cryin' Again (mono)
TTITLE6=Buddy Rich - Desperate Desmond (mono)
TTITLE7=Buddy Rich - It Couldn't Be True (mono)
TTITLE8=Buddy Rich - Quiet Riot (mono)
TTITLE9=Buddy Rich - Baby, Baby All The Time (mono)
TTITLE10=Buddy Rich - Route 66 (mono)
TTITLE11=Buddy Rich - The Iggity Song (mono)
TTITLE12=Buddy Rich - It's About Time (mono)
TTITLE13=Buddy Rich - Ready To Go Steady (mono)
TTITLE14=Buddy Rich - Rich-ual Dance (mono)
TTITLE15=Buddy Rich - Oop-Bop-Sha-Bam (mono)
TTITLE16=Cootie Williams - You Talk A Little Trash (mono)
TTITLE17=Cootie Williams - Typhoon (mono)
TTITLE18=Cootie Williams - I Love You, Yes I Do (mono)
TTITLE19=Cootie Williams - Smooth Sailing (mono)
TTITLE20=Cootie Williams - Gator Tail (Part 1) (mono)
TTITLE21=Cootie Williams - Gator Tail (Part 2) (mono)
TTITLE22=Cootie Williams - Let 'Em Roll (mono)
TTITLE23=Cootie Williams - Slidin' And Glidin' (mono)
TTITLE24=Cootie Williams - Mercenary Papa (mono)
TTITLE25=Cootie Williams - You Got To Pay Those Dues (mono)
EXTD=
EXTT0=
EXTT1=
EXTT2=
EXTT3=
EXTT4=
EXTT5=
EXTT6=
EXTT7=
EXTT8=
EXTT9=
EXTT10=
EXTT11=
EXTT12=
EXTT13=
EXTT14=
EXTT15=
EXTT16=
EXTT17=
EXTT18=
EXTT19=
EXTT20=
EXTT21=
EXTT22=
EXTT23=
EXTT24=
EXTT25=
PLAYORDER=
